<svg xmlns="http://www.w3.org/2000/svg" width="102" height="86" viewBox="0 0 102 86" fill="none"><rect x="0.82251" y="0.233398" width="24.3825" height="84.6168" rx="3.41355" fill="#022AB7"></rect><path d="M29.416 23.3257C29.416 21.4404 30.9443 19.9121 32.8296 19.9121H71.8352C74.6388 19.9121 76.247 23.1047 74.5782 25.3575L58.9335 46.4779L35.5352 76.8956C33.5479 79.4791 29.416 78.0738 29.416 74.8143V23.3257Z" fill="#022AB7"></path><path d="M47.1981 72.3758C46.0574 71.1487 45.9759 69.2752 47.0056 67.9536L64.3797 45.6552C65.6588 44.0136 68.0967 43.8888 69.5367 45.3912L99.8145 76.9802C101.891 79.1469 100.362 82.7463 97.3611 82.7558L83.6137 82.7995L58.4605 82.8796C57.5081 82.8827 56.5978 82.4877 55.9494 81.7902L47.1981 72.3758Z" fill="#022AB7"></path></svg>